<svg width="28" height="28" viewBox="0 0 28 28" fill="none" xmlns="http://www.w3.org/2000/svg">
<path fill-rule="evenodd" clip-rule="evenodd" d="M23.94 17.745L21.84 15.6333V10.43V10.43C21.8978 6.43454 18.9997 3.00868 15.05 2.40332V2.40332C10.7444 1.83631 6.79429 4.86704 6.22728 9.17266C6.18308 9.5083 6.1606 9.84645 6.15998 10.185V15.6333L4.05998 17.745H4.05998C3.31898 18.4983 3.329 19.7098 4.08235 20.4508C4.43757 20.8002 4.91508 20.9972 5.41333 21H9.33333V21.3967V21.3967C9.44679 23.8626 11.5337 25.7721 14 25.6667V25.6667C16.4663 25.7721 18.5532 23.8626 18.6667 21.3967V21H22.5867V21C23.6434 20.9941 24.4952 20.1326 24.4892 19.0759C24.4864 18.5777 24.2894 18.1002 23.94 17.745V17.745ZM16.3333 21.3967V21.3967C16.1989 22.5625 15.1706 23.416 14 23.3333V23.3333C12.8294 23.416 11.8011 22.5625 11.6667 21.3967V21H16.3333V21.3967ZM6.42833 18.6667L7.805 17.29V17.29C8.24604 16.8516 8.49382 16.2552 8.49333 15.6333V10.185L8.49333 10.1852C8.49456 8.59292 9.18352 7.07877 10.3832 6.03179L10.3832 6.03179C11.5671 4.95896 13.1624 4.45989 14.7467 4.66666V4.66666C17.5363 5.11962 19.5665 7.55778 19.5067 10.3833V15.6333V15.6333C19.5031 16.2535 19.7466 16.8497 20.1833 17.29L21.5717 18.6667L6.42833 18.6667Z" fill="#BDBDBD"/>
</svg>
