<svg width="28" height="28" viewBox="0 0 28 28" fill="none" xmlns="http://www.w3.org/2000/svg">
<path fill-rule="evenodd" clip-rule="evenodd" d="M23.8234 11.8767L14.8284 2.68335V2.68335C14.3746 2.22587 13.6359 2.22284 13.1785 2.67658C13.1762 2.67883 13.1739 2.68108 13.1717 2.68335L4.17669 11.8884H4.17669C3.73704 12.3315 3.49332 12.9324 3.50002 13.5567V23.3334L3.50002 23.3334C3.49816 24.5735 4.46675 25.5985 5.70505 25.6667H22.2951V25.6667C23.5333 25.5985 24.5019 24.5735 24.5 23.3333V13.5567V13.5567C24.5009 12.9301 24.2583 12.3277 23.8233 11.8767L23.8234 11.8767ZM11.6667 23.3334V16.3334H16.3334V23.3334H11.6667ZM22.1667 23.3334H18.6667V15.1667V15.1667C18.6667 14.5224 18.1444 14 17.5 14H10.5V14C9.85569 14 9.33335 14.5224 9.33335 15.1667V15.1667V23.3334H5.83335V13.51L14 5.16835L22.1667 13.5567V23.3334Z" fill="white"/>
</svg>
