<svg width="28" height="28" viewBox="0 0 28 28" fill="none" xmlns="http://www.w3.org/2000/svg">
<path fill-rule="evenodd" clip-rule="evenodd" d="M9.33338 5.83332C9.33338 6.47765 8.81105 6.99999 8.16672 6.99999L7.00005 6.99999V21H8.16672C8.81105 21 9.33338 21.5223 9.33338 22.1666C9.33338 22.811 8.81105 23.3333 8.16672 23.3333H5.83338C5.18905 23.3333 4.66672 22.811 4.66672 22.1666V5.83332C4.66672 5.18899 5.18905 4.66666 5.83338 4.66666H8.16672C8.81105 4.66666 9.33338 5.18899 9.33338 5.83332ZM21 8.65665L24.29 13.3233C24.5827 13.7384 24.5733 14.2951 24.2667 14.7L20.7667 19.3666C20.5464 19.6604 20.2006 19.8333 19.8334 19.8333C19.5809 19.8333 19.3353 19.7514 19.1334 19.6C18.6179 19.2134 18.5134 18.4821 18.9 17.9667L21 15.1667H11.6667C11.0224 15.1667 10.5 14.6443 10.5 14C10.5 13.3557 11.0224 12.8333 11.6667 12.8333H21.105L19.0984 10.01L19.0924 10.0016C18.7227 9.47393 18.8507 8.74641 19.3784 8.37665C19.9039 8.00791 20.6286 8.13304 21 8.65665Z" fill="white"/>
</svg>
