<svg width="24" height="24" viewBox="0 0 24 24" fill="none" xmlns="http://www.w3.org/2000/svg">
<path fill-rule="evenodd" clip-rule="evenodd" d="M6.41421 13.4142C7.19526 12.6332 7.19526 11.3669 6.41421 10.5858C5.63316 9.80475 4.36683 9.80475 3.58578 10.5858C2.80473 11.3669 2.80473 12.6332 3.58578 13.4142C4.36683 14.1953 5.63316 14.1953 6.41421 13.4142ZM13.4142 10.5858C14.1952 11.3669 14.1952 12.6332 13.4142 13.4142C12.6332 14.1953 11.3668 14.1953 10.5858 13.4142C9.80472 12.6332 9.80472 11.3669 10.5858 10.5858C11.3668 9.80475 12.6331 9.80475 13.4142 10.5858ZM20.4142 10.5858C21.1952 11.3669 21.1952 12.6332 20.4142 13.4142C19.6332 14.1953 18.3668 14.1953 17.5858 13.4142C16.8047 12.6332 16.8047 11.3669 17.5858 10.5858C18.3668 9.80475 19.6332 9.80475 20.4142 10.5858Z" fill="#212121"/>
</svg>
