<svg width="16" height="16" viewBox="0 0 16 16" fill="none" xmlns="http://www.w3.org/2000/svg">
<path fill-rule="evenodd" clip-rule="evenodd" d="M3.33333 8.66666H11.24L8.82 11.5733V11.5733C8.58436 11.8568 8.62316 12.2777 8.90667 12.5133C9.19017 12.749 9.61103 12.7102 9.84667 12.4267L13.18 8.42666V8.42666C13.2024 8.39485 13.2225 8.36142 13.24 8.32666C13.24 8.29333 13.2733 8.27333 13.2867 8.24V8.24C13.3169 8.16356 13.3327 8.08219 13.3333 8V8C13.3327 7.9178 13.3169 7.83644 13.2867 7.76C13.2867 7.72666 13.2533 7.70666 13.24 7.67333V7.67333C13.2225 7.63857 13.2024 7.60515 13.18 7.57333L9.84667 3.57333V3.57333C9.71976 3.42097 9.53162 3.33301 9.33333 3.33333V3.33333C9.17757 3.33303 9.02661 3.38728 8.90667 3.48666L8.90667 3.48666C8.62322 3.72166 8.58394 4.14194 8.81893 4.42538C8.81929 4.42581 8.81964 4.42624 8.82 4.42666L11.24 7.33333H3.33333V7.33333C2.96514 7.33333 2.66667 7.63181 2.66667 8C2.66667 8.36819 2.96514 8.66667 3.33333 8.66667L3.33333 8.66666Z" fill="#1E90FF"/>
</svg>
