<svg width="28" height="28" viewBox="0 0 28 28" fill="none" xmlns="http://www.w3.org/2000/svg">
<path fill-rule="evenodd" clip-rule="evenodd" d="M22.75 23.9167H5.24997V23.9167C3.66291 23.9362 2.35888 22.6686 2.3333 21.0817V6.91834L2.3333 6.91834C2.35888 5.33137 3.6629 4.06386 5.24995 4.08333H10.6166V4.08333C10.9656 4.08564 11.2951 4.24401 11.515 4.515L14.5483 8.225H22.715V8.225C24.306 8.18613 25.6273 9.44441 25.6661 11.0354C25.6663 11.0436 25.6665 11.0518 25.6666 11.06V21.0817V21.0817C25.641 22.6686 24.337 23.9361 22.75 23.9167L22.75 23.9167ZM4.66663 16.0533V21.0817H4.66663C4.68479 21.3775 4.93933 21.6026 5.23517 21.5845C5.24011 21.5841 5.24504 21.5838 5.24997 21.5833H22.75V21.5833C23.0452 21.6097 23.3059 21.3917 23.3322 21.0965C23.3326 21.0915 23.333 21.0866 23.3333 21.0817V11.06V11.06C23.3151 10.7642 23.0606 10.5391 22.7648 10.5572C22.7598 10.5575 22.7549 10.5579 22.75 10.5583H14V10.5583C13.651 10.556 13.3215 10.3977 13.1016 10.1267L10.0683 6.41667H5.24997V6.41667C4.95474 6.39034 4.69408 6.60832 4.66775 6.90354C4.66731 6.90847 4.66694 6.9134 4.66663 6.91834L4.66663 16.0533Z" fill="#BDBDBD"/>
</svg>
