<svg width="28" height="28" viewBox="0 0 28 28" fill="none" xmlns="http://www.w3.org/2000/svg">
<path fill-rule="evenodd" clip-rule="evenodd" d="M15.0966 25.6667H12.8916C11.8092 25.6667 10.9316 24.7891 10.9316 23.7067V22.435C10.9187 22.2821 10.8188 22.1503 10.675 22.0967C10.5292 22.0033 10.3424 22.0033 10.1966 22.0967L9.3333 23.03C8.5751 23.7935 7.3415 23.7979 6.57796 23.0397L6.5683 23.03L4.96997 21.4667C4.5962 21.1015 4.38583 20.6009 4.38663 20.0783C4.38739 19.5493 4.59704 19.0419 4.96998 18.6667L5.83331 17.8033C5.91846 17.672 5.91846 17.5029 5.83331 17.3717C5.76331 17.1967 5.64664 17.0683 5.48331 17.0683H4.2933C3.20894 17.0619 2.33329 16.181 2.3333 15.0967V12.8917C2.3333 11.8092 3.21082 10.9317 4.2933 10.9317H5.56497C5.7179 10.9188 5.84967 10.8188 5.9033 10.675C5.99669 10.5292 5.99669 10.3424 5.9033 10.1967L4.96997 9.33333C4.20643 8.57513 4.20211 7.34153 4.96031 6.57799L4.96997 6.56834L6.5333 4.97C6.89485 4.59801 7.39122 4.38768 7.90996 4.38667C8.44306 4.38433 8.95517 4.59421 9.3333 4.97L10.1966 5.83334C10.3279 5.91848 10.497 5.91848 10.6283 5.83334C10.8033 5.76334 10.9316 5.64667 10.9316 5.48334V4.29335C10.938 3.20899 11.8189 2.33333 12.9033 2.33334H15.1666C16.2491 2.33334 17.1266 3.21086 17.1266 4.29334V5.565C17.1395 5.71794 17.2395 5.84971 17.3833 5.90334C17.5291 5.99673 17.7159 5.99673 17.8616 5.90334L18.6666 4.97C19.4248 4.20647 20.6584 4.20215 21.422 4.96035L21.4316 4.97L23.03 6.53334C23.4026 6.89923 23.6128 7.39941 23.6133 7.92167C23.6247 8.45307 23.4131 8.96498 23.03 9.33334L22.1666 10.1967C22.0815 10.328 22.0815 10.497 22.1666 10.6283C22.2366 10.8033 22.3533 10.9317 22.5166 10.9317H23.7883C24.8406 10.9815 25.6678 11.8498 25.6666 12.9033V15.1667C25.6666 16.2492 24.7891 17.1267 23.7066 17.1267H22.435C22.282 17.1396 22.1503 17.2395 22.0966 17.3833C22.0115 17.5146 22.0115 17.6837 22.0966 17.815L22.995 18.7133C23.7585 19.4715 23.7628 20.7051 23.0046 21.4687L22.995 21.4783L21.4666 23.03C21.1051 23.402 20.6087 23.6123 20.09 23.6133C19.569 23.6065 19.0711 23.3973 18.7016 23.03L17.8033 22.1667C17.672 22.0815 17.5029 22.0815 17.3716 22.1667C17.1966 22.2367 17.0683 22.3533 17.0683 22.5167V23.7883C17.0184 24.8406 16.1501 25.6678 15.0966 25.6667ZM13.265 23.3333H14.735V22.435C14.7451 21.3348 15.4175 20.3491 16.4383 19.9383C17.4634 19.4903 18.6577 19.707 19.46 20.4867L20.09 21.1167L21.1166 20.09L20.4866 19.4483C19.7119 18.6583 19.4908 17.4787 19.9266 16.4617C20.3411 15.4455 21.3259 14.7782 22.4233 14.77H23.3333V13.265H22.435C21.3347 13.2548 20.3491 12.5824 19.9383 11.5617C19.4902 10.5366 19.7069 9.34228 20.4866 8.54L21.1166 7.91L20.09 6.88333L19.4483 7.51333C18.3113 8.55192 16.5476 8.47212 15.509 7.33511C15.0653 6.84936 14.8077 6.22237 14.7816 5.565V4.66667H13.265V5.56499C13.2548 6.66524 12.5824 7.65086 11.5616 8.06167C10.5366 8.50975 9.34225 8.29302 8.53997 7.51333L7.90997 6.88333L6.8833 7.91L7.5133 8.55167C8.55189 9.68868 8.47209 11.4523 7.33508 12.4909C6.84933 12.9346 6.22234 13.1923 5.56497 13.2183H4.66663V14.6883H5.56496C6.66522 14.6985 7.65084 15.3709 8.06163 16.3917C8.50971 17.4168 8.29298 18.6111 7.5133 19.4133L6.8833 20.0433L7.90996 21.07L8.55163 20.44C9.68865 19.4014 11.4523 19.4812 12.4909 20.6182C12.9346 21.104 13.1923 21.731 13.2183 22.3883L13.265 23.3333ZM14 18.0833C11.7448 18.0833 9.91663 16.2552 9.91663 14C9.91663 11.7448 11.7448 9.91667 14 9.91667C16.2551 9.91667 18.0833 11.7448 18.0833 14C18.0833 16.2552 16.2551 18.0833 14 18.0833ZM14 12.25C13.0335 12.25 12.25 13.0335 12.25 14C12.25 14.9665 13.0335 15.75 14 15.75C14.9665 15.75 15.75 14.9665 15.75 14C15.75 13.0335 14.9665 12.25 14 12.25Z" fill="#BDBDBD"/>
</svg>
