<svg width="24" height="24" viewBox="0 0 24 24" fill="none" xmlns="http://www.w3.org/2000/svg">
<path fill-rule="evenodd" clip-rule="evenodd" d="M13.41 12L17.71 7.71V7.71C18.1021 7.31788 18.1021 6.68212 17.71 6.29C17.3179 5.89788 16.6821 5.89788 16.29 6.29L12 10.59L7.71 6.29L7.71 6.29C7.31788 5.89788 6.68212 5.89788 6.29 6.29C5.89788 6.68212 5.89788 7.31788 6.29 7.71V7.71L10.59 12L6.29 16.29V16.29C5.89788 16.6789 5.89528 17.3121 6.2842 17.7042C6.28613 17.7061 6.28806 17.7081 6.29 17.71H6.29C6.67892 18.1021 7.31208 18.1047 7.7042 17.7158C7.70614 17.7139 7.70807 17.7119 7.71 17.71L12 13.41L16.29 17.71V17.71C16.6789 18.1021 17.3121 18.1047 17.7042 17.7158C17.7061 17.7139 17.7081 17.7119 17.71 17.71V17.71C18.1021 17.3211 18.1047 16.6879 17.7158 16.2958C17.7139 16.2939 17.7119 16.2919 17.71 16.29L13.41 12Z" fill="#DF1642"/>
</svg>
