<svg width="24" height="24" viewBox="0 0 24 24" fill="none" xmlns="http://www.w3.org/2000/svg">
<path fill-rule="evenodd" clip-rule="evenodd" d="M9.86003 18V18C9.58286 17.9991 9.3185 17.8832 9.13003 17.68L4.27003 12.51H4.27003C3.89171 12.1068 3.91186 11.4733 4.31503 11.095C4.7182 10.7167 5.35171 10.7368 5.73003 11.14V11.14L9.85003 15.53L18.26 6.33V6.33C18.6058 5.89938 19.2353 5.83063 19.6659 6.17644C20.0965 6.52225 20.1653 7.15167 19.8194 7.58229C19.7947 7.61307 19.7682 7.64235 19.74 7.67L10.6 17.67V17.67C10.4133 17.8769 10.1487 17.9965 9.87003 18L9.86003 18Z" fill="#18A957"/>
</svg>
